<?xml version="1.0" standalone="no"?><!DOCTYPE svg PUBLIC "-//W3C//DTD SVG 1.1//EN" "http://www.w3.org/Graphics/SVG/1.1/DTD/svg11.dtd"><svg t="1589891509033" class="icon" viewBox="0 0 1024 1024" version="1.1" xmlns="http://www.w3.org/2000/svg" p-id="2386" width="16" height="16" xmlns:xlink="http://www.w3.org/1999/xlink"><defs><style type="text/css"></style></defs><path d="M962 257H272c-24.9 0-45-20.1-45-45s20.1-45 45-45h690c24.9 0 45 20.1 45 45s-20.1 45-45 45z" fill="#1296db" p-id="2387"></path><path d="M77 212m-60 0a60 60 0 1 0 120 0 60 60 0 1 0-120 0Z" fill="#1296db" p-id="2388"></path><path d="M962 557H272c-24.9 0-45-20.1-45-45s20.1-45 45-45h690c24.9 0 45 20.1 45 45s-20.1 45-45 45z" fill="#1296db" p-id="2389"></path><path d="M77 512m-60 0a60 60 0 1 0 120 0 60 60 0 1 0-120 0Z" fill="#1296db" p-id="2390"></path><path d="M962 857H272c-24.9 0-45-20.1-45-45s20.1-45 45-45h690c24.9 0 45 20.1 45 45s-20.1 45-45 45z" fill="#1296db" p-id="2391"></path><path d="M77 812m-60 0a60 60 0 1 0 120 0 60 60 0 1 0-120 0Z" fill="#1296db" p-id="2392"></path></svg>