<?xml version="1.0" standalone="no"?><!DOCTYPE svg PUBLIC "-//W3C//DTD SVG 1.1//EN" "http://www.w3.org/Graphics/SVG/1.1/DTD/svg11.dtd"><svg t="1589876392256" class="icon" viewBox="0 0 1024 1024" version="1.1" xmlns="http://www.w3.org/2000/svg" p-id="3449" width="16" height="16" xmlns:xlink="http://www.w3.org/1999/xlink"><defs><style type="text/css"></style></defs><path d="M512 91.5c231.9 0 420.5 188.6 420.5 420.5S743.9 932.5 512 932.5 91.5 743.9 91.5 512 280.1 91.5 512 91.5m0-87C231.7 4.5 4.5 231.7 4.5 512s227.2 507.5 507.5 507.5 507.5-227.2 507.5-507.5S792.3 4.5 512 4.5z" fill="#d81e06" p-id="3450"></path><path d="M512 294.5c87.9 0 159.5 71.6 159.5 159.5S599.9 613.5 512 613.5 352.5 541.9 352.5 454 424.1 294.5 512 294.5m0-87c-136.1 0-246.5 110.4-246.5 246.5S375.9 700.5 512 700.5 758.5 590.1 758.5 454 648.1 207.5 512 207.5z" fill="#d81e06" p-id="3451"></path><path d="M192.9 874.5c-9.1 0-18.3-2.8-26.1-8.7-19.2-14.4-23.1-41.7-8.7-60.9 91.4-121.6 231-191.4 382.9-191.4 135.9 0 265.9 58.1 356.6 159.5 16 17.9 14.5 45.4-3.4 61.4-18 16.1-45.5 14.4-61.4-3.4-74.3-83-180.6-130.5-291.8-130.5-124.3 0-238.5 57.1-313.3 156.6-8.5 11.4-21.6 17.4-34.8 17.4z" fill="#d81e06" p-id="3452"></path></svg>